<?xml version="1.0" encoding="UTF-8" standalone="no" ?>
<!DOCTYPE svg PUBLIC "-//W3C//DTD SVG 1.1//EN" "http://www.w3.org/Graphics/SVG/1.1/DTD/svg11.dtd">
<svg xmlns="http://www.w3.org/2000/svg" xmlns:xlink="http://www.w3.org/1999/xlink" version="1.1" width="153.54331130784624" height="153.54331130784726" viewBox="169.57255132020504 142.29471105023833 153.54331130784624 153.54331130784726" xml:space="preserve">
<desc>Created with Fabric.js 4.6.0</desc>
<defs>
</defs>
<g transform="matrix(1 0 0 1 246.34 219.07)" id="GyyZsqu7SKVA-G2_y3lFy"  >
<path style="stroke: rgb(111,103,240); stroke-width: 0; stroke-dasharray: none; stroke-linecap: butt; stroke-dashoffset: 0; stroke-linejoin: miter; stroke-miterlimit: 4; fill: rgb(0,20,110); fill-rule: nonzero; opacity: 1;" vector-effect="non-scaling-stroke"  transform=" translate(0, 0)" d="M 0 -76.77166 C 42.37795 -76.77166 76.77166 -42.377959999999995 76.77166 0 C 76.77166 42.37795 42.377959999999995 76.77166 0 76.77166 C -42.37795 76.77166 -76.77166 42.377959999999995 -76.77166 0 C -76.77166 -42.37795 -42.377959999999995 -76.77166 0 -76.77166 z" stroke-linecap="round" />
</g>
<g transform="matrix(1 0 0 1 245.73 233.13)" id="3KpIei9F7OdTaLlbH1klP"  >
<path style="stroke: rgb(0,20,110); stroke-width: 0; stroke-dasharray: none; stroke-linecap: butt; stroke-dashoffset: 0; stroke-linejoin: miter; stroke-miterlimit: 4; fill: rgb(255,0,217); fill-rule: nonzero; opacity: 1;" vector-effect="non-scaling-stroke"  transform=" translate(0, 0)" d="M -0.63284 -28.77613 C -19.474230000000002 -28.77613 -31.64166 -35.717 -31.64166 -35.717 L -21.597450000000002 28.962419999999995 C -21.597450000000002 28.962419999999995 -11.151650000000002 35.717009999999995 -0.465480000000003 35.717009999999995 C 10.220679999999996 35.717009999999995 21.147209999999998 28.962419999999995 21.147209999999998 28.962419999999995 L 31.641659999999998 -35.717 C 31.641659999999998 -35.717 18.20855 -28.77613 -0.6328400000000052 -28.77613 z" stroke-linecap="round" />
</g>
<g transform="matrix(0.99 0 0 0.25 245.73 198.63)" id="pZdc8CM4lBLT3O6SJgGjc"  >
<path style="stroke: rgb(0,20,110); stroke-width: 0; stroke-dasharray: none; stroke-linecap: butt; stroke-dashoffset: 0; stroke-linejoin: miter; stroke-miterlimit: 4; fill: rgb(255,0,217); fill-rule: nonzero; opacity: 1;" vector-effect="non-scaling-stroke"  transform=" translate(0, 0)" d="M 0 -31.88406 C 17.6 -31.88406 31.88406 -17.6 31.88406 0 C 31.88406 17.6 17.6 31.88406 0 31.88406 C -17.6 31.88406 -31.88406 17.6 -31.88406 0 C -31.88406 -17.6 -17.6 -31.88406 0 -31.88406 z" stroke-linecap="round" />
</g>
<g transform="matrix(1 0 0 1 269.64 171.62)" id="bmw7Mf09jhFb5bbDiYO-V"  >
<path style="stroke: rgb(0,20,110); stroke-width: 0; stroke-dasharray: none; stroke-linecap: butt; stroke-dashoffset: 0; stroke-linejoin: miter; stroke-miterlimit: 4; fill: rgb(255,0,106); fill-rule: nonzero; opacity: 1;" vector-effect="non-scaling-stroke"  transform=" translate(-12.75, -12.75)" d="M 12.75304 0 C 19.79272 0 25.50608 5.71336 25.50608 12.75304 C 25.50608 19.79272 19.792720000000003 25.50608 12.75304 25.50608 C 5.713360000000001 25.50608 0 19.792720000000003 0 12.75304 C 0 5.713360000000001 5.71336 0 12.75304 0 z" stroke-linecap="round" />
</g>
</svg>
